<?xml version="1.0" encoding="UTF-8"?>
<svg xmlns="http://www.w3.org/2000/svg" viewBox="0 0 3035.86 6927.36">
  <defs>
    <style>
      .cls-1 {
        fill: #f1f2f2;
      }

      .cls-1, .cls-2 {
        font-family: Bahnschrift-LightCondensed, Bahnschrift;
        font-size: 99.66px;
        font-variation-settings: 'wght' 300, 'wdth' 75;
        font-weight: 300;
      }

      .cls-3 {
        fill: #181918;
      }

      .cls-4 {
        fill: #e6e6e1;
      }

      .cls-5 {
        fill: #333;
      }

      .cls-2 {
        fill: #231f20;
      }

      .cls-6 {
        fill: #f21546;
      }

      .cls-7 {
        fill: #6d706d;
      }
    </style>
  </defs>
  <g id="Layer_2" data-name="Layer 2">
    <rect class="cls-5" y="0" width="3035.86" height="6927.36"/>
  </g>
  <g id="Letters">
    <rect class="cls-3" x="17.93" y="6689.64" width="750" height="219.79"/>
    <rect class="cls-6" x="767.93" y="6689.64" width="750" height="219.79"/>
    <rect class="cls-4" x="1517.93" y="6689.64" width="750" height="219.79"/>
    <rect class="cls-7" x="2267.93" y="6689.64" width="750" height="219.79"/>
    <rect class="cls-3" x="17.93" y="4871.72" width="1500" height="1800"/>
    <rect class="cls-3" x="1517.93" y="4871.72" width="1500" height="1800"/>
    <polygon class="cls-3" points="1517.93 935.86 17.93 935.86 17.93 3935.86 1517.93 3935.86 3017.93 3935.86 3017.93 935.86 1517.93 935.86"/>
    <rect class="cls-3" x="17.93" y="17.93" width="3000" height="900"/>
    <polygon id="E3" class="cls-7" points="814.75 529.91 814.75 627.29 761.63 627.29 761.63 574.17 814.75 529.91"/>
    <polygon id="E2" class="cls-7" points="920.99 441.37 920.99 627.29 867.87 627.29 867.87 485.63 889.11 467.93 920.99 441.37"/>
    <polygon id="E1" class="cls-7" points="1027.22 352.83 1027.22 627.29 974.1 627.29 974.1 397.11 1016.6 361.69 1027.22 352.83"/>
    <g>
      <polygon id="FC3" class="cls-6" points="867.87 308.57 867.87 485.63 825.37 521.05 814.75 529.91 814.75 308.57 867.87 308.57"/>
      <polygon id="FC2" class="cls-6" points="974.1 308.57 974.1 397.11 952.86 414.81 920.99 441.37 920.99 308.57 974.1 308.57"/>
      <polygon id="FC1" class="cls-6" points="1080.34 308.57 1027.22 352.83 1027.22 308.57 1080.34 308.57"/>
    </g>
    <g id="E">
      <polygon id="E2-2" data-name="E2" class="cls-4" points="1388.97 410.39 1355.18 438.54 1177.55 438.54 1177.55 410.39 1388.97 410.39"/>
      <polygon id="E1-2" data-name="E1" class="cls-4" points="1205.68 504.14 1205.68 541.58 1388.98 541.58 1388.98 569.74 1177.53 569.74 1177.53 475.99 1388.98 475.99 1388.98 504.14 1205.68 504.14"/>
    </g>
    <polygon id="H" class="cls-4" points="1616.32 410.39 1616.32 569.74 1588.16 569.74 1588.16 504.14 1433.01 504.14 1433.01 569.74 1404.86 569.74 1404.86 410.39 1433.01 410.39 1433.01 475.99 1588.16 475.99 1588.16 410.39 1616.32 410.39"/>
    <path id="S" class="cls-4" d="M1665.81,443.98c-3.68,3.68-5.47,8.02-5.47,13.28s1.79,9.59,5.47,13.26c3.68,3.68,8.04,5.45,13.38,5.45h117.69c12.82,0,23.92,4.63,33.04,13.73,9.1,9.12,13.73,20.24,13.73,33.04,0,8.45-2.11,16.4-6.27,23.6-2.09,3.6-4.53,6.83-7.43,9.68v.02c-2.85,2.85-6.08,5.32-9.68,7.41-7.2,4.16-15.06,6.27-23.4,6.27h-164.66v-28.15h164.66c5.19,0,9.5-1.77,13.17-5.45,3.68-3.68,5.45-8.02,5.45-13.27v-.11c-.02-5.21-1.79-9.5-5.45-13.17-3.68-3.66-7.99-5.45-13.17-5.45h-117.69c-12.95,0-24.14-4.63-33.25-13.73-9.12-9.12-13.73-20.26-13.73-33.13s4.61-24.03,13.73-33.15c9.1-9.1,20.3-13.73,33.25-13.73h164.46v28.15h-164.46c-5.34,0-9.7,1.79-13.38,5.45Z"/>
    <polygon id="N" class="cls-4" points="2274.23 410.38 2274.23 569.73 2249.68 569.73 2097.68 449.2 2097.68 569.73 2069.53 569.73 2069.53 410.38 2093.86 410.38 2245.85 530.9 2245.85 410.38 2274.23 410.38"/>
    <polygon id="A" class="cls-4" points="1842.17 569.74 1931.72 410.38 1964.1 410.38 2053.62 569.74 2021.24 569.74 1947.89 438.53 1874.55 569.74 1842.17 569.74"/>
    <rect class="cls-3" x="17.93" y="3953.79" width="3000" height="900"/>
    <g id="E-2" data-name="E">
      <polygon id="E2-3" data-name="E2" class="cls-4" points="1053.25 4293.9 1006.65 4332.73 761.66 4332.73 761.66 4293.9 1053.25 4293.9"/>
      <polygon id="E1-3" data-name="E1" class="cls-4" points="800.46 4423.21 800.46 4474.85 1053.27 4474.85 1053.27 4513.68 761.63 4513.68 761.63 4384.38 1053.27 4384.38 1053.27 4423.21 800.46 4423.21"/>
    </g>
    <polygon id="H-2" data-name="H" class="cls-4" points="1366.82 4293.9 1366.82 4513.68 1327.99 4513.68 1327.99 4423.21 1114 4423.21 1114 4513.68 1075.17 4513.68 1075.17 4293.9 1114 4293.9 1114 4384.38 1327.99 4384.38 1327.99 4293.9 1366.82 4293.9"/>
    <path id="S-2" data-name="S" class="cls-4" d="M1435.08,4340.24c-5.07,5.07-7.54,11.06-7.54,18.32s2.47,13.23,7.54,18.3c5.07,5.07,11.09,7.51,18.45,7.51h162.32c17.68,0,32.99,6.38,45.57,18.94,12.56,12.58,18.94,27.92,18.94,45.57,0,11.66-2.91,22.62-8.65,32.55-2.88,4.97-6.25,9.42-10.24,13.35v.03c-3.94,3.94-8.39,7.33-13.35,10.22-9.93,5.74-20.77,8.65-32.27,8.65h-227.11v-38.83h227.11c7.15,0,13.1-2.44,18.17-7.51,5.07-5.07,7.51-11.06,7.51-18.3v-.15c-.03-7.18-2.47-13.1-7.51-18.17-5.07-5.04-11.01-7.51-18.17-7.51h-162.32c-17.86,0-33.3-6.38-45.85-18.94-12.58-12.58-18.94-27.94-18.94-45.7s6.36-33.14,18.94-45.73c12.56-12.56,28-18.94,45.85-18.94h226.83v38.83h-226.83c-7.36,0-13.38,2.47-18.45,7.51Z"/>
    <polygon id="N-2" data-name="N" class="cls-4" points="2274.23 4293.89 2274.23 4513.67 2240.37 4513.67 2030.73 4347.44 2030.73 4513.67 1991.9 4513.67 1991.9 4293.89 2025.45 4293.89 2235.09 4460.12 2235.09 4293.89 2274.23 4293.89"/>
    <polygon id="A-2" data-name="A" class="cls-4" points="1678.32 4513.68 1801.82 4293.89 1846.48 4293.89 1969.96 4513.68 1925.3 4513.68 1824.14 4332.72 1722.98 4513.68 1678.32 4513.68"/>
    <text class="cls-2" transform="translate(2502.283 6828.6629)"><tspan x="0" y="0">#6D706D</tspan></text>
    <text class="cls-2" transform="translate(996.5159 6828.663)"><tspan x="0" y="0">#F21546</tspan></text>
    <text class="cls-2" transform="translate(1752.0633 6828.6635)"><tspan x="0" y="0">#E6E6E1</tspan></text>
    <text class="cls-1" transform="translate(247.8057 6828.663)"><tspan x="0" y="0">#181918</tspan></text>
    <rect class="cls-6" x="392.93" y="5321.72" width="900" height="900" rx="250" ry="250"/>
    <rect class="cls-6" x="1742.93" y="5321.72" width="900" height="900" rx="250" ry="250"/>
    <g>
      <polygon id="E3-2" data-name="E3" class="cls-3" points="2042.82 5864.68 2042.82 6010.75 1963.14 6010.75 1963.14 5931.07 2042.82 5864.68"/>
      <polygon id="E2-4" data-name="E2" class="cls-3" points="2202.17 5731.88 2202.17 6010.75 2122.49 6010.75 2122.49 5798.26 2154.37 5771.72 2202.17 5731.88"/>
      <polygon id="E1-4" data-name="E1" class="cls-3" points="2361.53 5599.07 2361.53 6010.75 2281.85 6010.75 2281.85 5665.49 2345.59 5612.36 2361.53 5599.07"/>
      <polygon id="FC3-2" data-name="FC3" class="cls-3" points="2122.49 5532.68 2122.49 5798.26 2058.75 5851.39 2042.82 5864.68 2042.82 5532.68 2122.49 5532.68"/>
      <polygon id="FC2-2" data-name="FC2" class="cls-3" points="2281.85 5532.68 2281.85 5665.49 2249.98 5692.04 2202.17 5731.88 2202.17 5532.68 2281.85 5532.68"/>
      <polygon id="FC1-2" data-name="FC1" class="cls-3" points="2441.21 5532.68 2361.53 5599.07 2361.53 5532.68 2441.21 5532.68"/>
    </g>
    <circle class="cls-4" cx="2612.45" cy="5352.2" r="180.48"/>
    <path class="cls-3" d="M2653.96,5289.03v24.18l-41.15,102.15h-30.68l39.7-98.54h-50.89v-27.79h83.02Z"/>
    <g>
      <g id="E-3" data-name="E">
        <polygon id="E2-5" data-name="E2" class="cls-4" points="1053.25 2987.78 1006.65 3026.61 761.66 3026.61 761.66 2987.78 1053.25 2987.78"/>
        <polygon id="E1-5" data-name="E1" class="cls-4" points="800.46 3117.08 800.46 3168.72 1053.27 3168.72 1053.27 3207.55 761.63 3207.55 761.63 3078.25 1053.27 3078.25 1053.27 3117.08 800.46 3117.08"/>
      </g>
      <polygon id="H-3" data-name="H" class="cls-4" points="1366.82 2987.78 1366.82 3207.55 1327.99 3207.55 1327.99 3117.08 1114 3117.08 1114 3207.55 1075.17 3207.55 1075.17 2987.78 1114 2987.78 1114 3078.25 1327.99 3078.25 1327.99 2987.78 1366.82 2987.78"/>
      <path id="S-3" data-name="S" class="cls-4" d="M1435.08,3034.11c-5.07,5.07-7.54,11.06-7.54,18.32s2.47,13.23,7.54,18.3c5.07,5.07,11.09,7.51,18.45,7.51h162.32c17.68,0,32.99,6.38,45.57,18.94,12.56,12.58,18.94,27.92,18.94,45.57,0,11.66-2.91,22.62-8.65,32.55-2.88,4.97-6.25,9.42-10.24,13.35v.03c-3.94,3.94-8.39,7.33-13.35,10.22-9.93,5.74-20.77,8.65-32.27,8.65h-227.11v-38.83h227.11c7.15,0,13.1-2.44,18.17-7.51,5.07-5.07,7.51-11.06,7.51-18.3v-.15c-.03-7.18-2.47-13.1-7.51-18.17-5.07-5.04-11.01-7.51-18.17-7.51h-162.32c-17.86,0-33.3-6.38-45.85-18.94-12.58-12.58-18.94-27.94-18.94-45.7s6.36-33.14,18.94-45.73c12.56-12.56,28-18.94,45.85-18.94h226.83v38.83h-226.83c-7.36,0-13.38,2.47-18.45,7.51Z"/>
      <polygon id="N-3" data-name="N" class="cls-4" points="2274.23 2987.76 2274.23 3207.54 2240.37 3207.54 2030.73 3041.31 2030.73 3207.54 1991.9 3207.54 1991.9 2987.76 2025.45 2987.76 2235.09 3153.99 2235.09 2987.76 2274.23 2987.76"/>
      <polygon id="A-3" data-name="A" class="cls-4" points="1678.32 3207.55 1801.82 2987.76 1846.48 2987.76 1969.96 3207.55 1925.3 3207.55 1824.14 3026.6 1722.98 3207.55 1678.32 3207.55"/>
    </g>
    <g>
      <polygon id="E3-3" data-name="E3" class="cls-7" points="1180.25 2430.72 1180.25 2767.98 996.28 2767.98 996.28 2584.01 1180.25 2430.72"/>
      <polygon id="E2-6" data-name="E2" class="cls-7" points="1548.19 2124.08 1548.19 2767.98 1364.22 2767.98 1364.22 2277.37 1437.81 2216.07 1548.19 2124.08"/>
      <polygon id="E1-6" data-name="E1" class="cls-7" points="1916.13 1817.45 1916.13 2767.98 1732.16 2767.98 1732.16 1970.8 1879.33 1848.13 1916.13 1817.45"/>
    </g>
    <g>
      <polygon id="FC3-3" data-name="FC3" class="cls-6" points="1364.22 1664.16 1364.22 2277.37 1217.04 2400.04 1180.25 2430.72 1180.25 1664.16 1364.22 1664.16"/>
      <polygon id="FC2-3" data-name="FC2" class="cls-6" points="1732.16 1664.16 1732.16 1970.8 1658.57 2032.1 1548.19 2124.08 1548.19 1664.16 1732.16 1664.16"/>
      <polygon id="FC1-3" data-name="FC1" class="cls-6" points="2100.1 1664.16 1916.13 1817.45 1916.13 1664.16 2100.1 1664.16"/>
    </g>
    <g>
      <polygon class="cls-3" points="1081.96 5593.93 603.94 5593.93 603.94 5666.05 995.41 5666.05 1081.96 5593.93"/>
      <polygon class="cls-3" points="603.9 5949.5 1072.05 5949.5 1072.05 5877.38 676.01 5877.38 676.01 5807.77 1072.05 5807.77 1072.05 5735.66 603.9 5735.66 603.9 5949.5"/>
    </g>
  </g>
</svg>