<?xml version="1.0" encoding="UTF-8"?>
<svg id="Layer_1" data-name="Layer 1" xmlns="http://www.w3.org/2000/svg" viewBox="0 0 1400 203.43">
  <defs>
    <style>
      .cls-1 {
        fill: #e6e6e1;
      }
    </style>
  </defs>
  <g id="E">
    <polygon id="E2" class="cls-1" points="269.91 .01 226.78 35.95 .02 35.95 .02 .01 269.91 .01"/>
    <polygon id="E1" class="cls-1" points="35.94 119.69 35.94 167.49 269.93 167.49 269.93 203.43 0 203.43 0 83.75 269.93 83.75 269.93 119.69 35.94 119.69"/>
  </g>
  <polygon id="H" class="cls-1" points="560.14 .01 560.14 203.43 524.2 203.43 524.2 119.69 326.14 119.69 326.14 203.43 290.2 203.43 290.2 .01 326.14 .01 326.14 83.75 524.2 83.75 524.2 .01 560.14 .01"/>
  <path id="S" class="cls-1" d="M623.32,42.89c-4.69,4.69-6.98,10.24-6.98,16.96s2.29,12.24,6.98,16.93c4.69,4.69,10.26,6.95,17.08,6.95h150.23c16.36,0,30.53,5.91,42.18,17.53,11.62,11.65,17.53,25.84,17.53,42.18,0,10.79-2.69,20.93-8,30.13-2.67,4.6-5.79,8.72-9.48,12.36v.02c-3.64,3.64-7.76,6.79-12.36,9.46-9.19,5.31-19.22,8-29.87,8h-210.2v-35.94h210.2c6.62,0,12.12-2.26,16.81-6.95,4.69-4.69,6.95-10.24,6.95-16.93v-.14c-.02-6.64-2.29-12.12-6.95-16.81-4.69-4.67-10.19-6.95-16.81-6.95h-150.23c-16.53,0-30.82-5.91-42.44-17.53-11.65-11.65-17.53-25.86-17.53-42.3s5.88-30.68,17.53-42.32c11.62-11.62,25.91-17.53,42.44-17.53h209.94v35.94h-209.94c-6.81,0-12.38,2.29-17.08,6.95Z"/>
  <polygon id="N" class="cls-1" points="1400 0 1400 203.42 1368.66 203.42 1174.63 49.56 1174.63 203.42 1138.69 203.42 1138.69 0 1169.74 0 1363.78 153.85 1363.78 0 1400 0"/>
  <polygon id="A" class="cls-1" points="848.45 203.43 962.76 0 1004.1 0 1118.38 203.43 1077.05 203.43 983.41 35.94 889.78 203.43 848.45 203.43"/>
</svg>