<?xml version="1.0" encoding="UTF-8"?>
<svg id="Layer_1" xmlns="http://www.w3.org/2000/svg" version="1.1" viewBox="0 0 800 800">
  <!-- Generator: Adobe Illustrator 30.6.0, SVG Export Plug-In . SVG Version: 2.1.4 Build 109)  -->
  <defs>
    <style>
      .st0 {
        fill: #f21546;
      }

      .st1 {
        fill: #6d706d;
      }
    </style>
  </defs>
  <g>
    <polygon id="E3" class="st1" points="133.33 555.57 133.33 800 0 800 0 666.67 133.33 555.57"/>
    <polygon id="E2" class="st1" points="400 333.33 400 800 266.67 800 266.67 444.43 320 400 400 333.33"/>
    <polygon id="E1" class="st1" points="666.67 111.09 666.67 800 533.33 800 533.33 222.24 640 133.33 666.67 111.09"/>
  </g>
  <g>
    <polygon id="FC3" class="st0" points="266.67 0 266.67 444.43 160 533.33 133.33 555.57 133.33 0 266.67 0"/>
    <polygon id="FC2" class="st0" points="533.33 0 533.33 222.24 480 266.67 400 333.33 400 0 533.33 0"/>
    <polygon id="FC1" class="st0" points="800 0 666.67 111.09 666.67 0 800 0"/>
  </g>
</svg>