<?xml version="1.0" encoding="UTF-8"?>
<svg id="Layer_1" xmlns="http://www.w3.org/2000/svg" version="1.1" viewBox="0 0 784.04 800">
  <!-- Generator: Adobe Illustrator 30.6.0, SVG Export Plug-In . SVG Version: 2.1.4 Build 109)  -->
  <defs>
    <style>
      .st0 {
        fill: #e6e6e1;
      }

      .st1 {
        fill: #f21546;
      }

      .st2 {
        fill: #6d706d;
      }
    </style>
  </defs>
  <g>
    <g id="E">
      <polygon id="E2" class="st0" points="151.16 686.08 127 706.21 .01 706.21 .01 686.08 151.16 686.08"/>
      <polygon id="E1" class="st0" points="20.13 753.1 20.13 779.87 151.17 779.87 151.17 800 0 800 0 732.98 151.17 732.98 151.17 753.1 20.13 753.1"/>
    </g>
    <polygon id="H" class="st0" points="313.69 686.08 313.69 800 293.57 800 293.57 753.1 182.65 753.1 182.65 800 162.52 800 162.52 686.08 182.65 686.08 182.65 732.98 293.57 732.98 293.57 686.08 313.69 686.08"/>
    <path id="S" class="st0" d="M349.08,710.1c-2.63,2.63-3.91,5.74-3.91,9.5s1.28,6.86,3.91,9.48c2.63,2.63,5.75,3.89,9.56,3.89h84.14c9.16,0,17.1,3.31,23.62,9.82,6.51,6.52,9.82,14.47,9.82,23.62,0,6.04-1.51,11.72-4.48,16.87-1.49,2.57-3.24,4.88-5.31,6.92h0c-2.04,2.05-4.35,3.81-6.92,5.31-5.15,2.97-10.76,4.48-16.73,4.48h-117.72v-20.13h117.72c3.71,0,6.79-1.27,9.42-3.89,2.63-2.63,3.89-5.74,3.89-9.48v-.08c-.01-3.72-1.28-6.79-3.89-9.42-2.63-2.61-5.71-3.89-9.42-3.89h-84.14c-9.26,0-17.26-3.31-23.77-9.82-6.52-6.52-9.82-14.48-9.82-23.69s3.29-17.18,9.82-23.7c6.51-6.51,14.51-9.82,23.77-9.82h117.57v20.13h-117.57c-3.81,0-6.94,1.28-9.56,3.89Z"/>
    <polygon id="N" class="st0" points="784.04 686.08 784.04 799.99 766.49 799.99 657.82 713.83 657.82 799.99 637.7 799.99 637.7 686.08 655.09 686.08 763.75 772.24 763.75 686.08 784.04 686.08"/>
    <polygon id="A" class="st0" points="475.16 800 539.17 686.07 562.32 686.07 626.33 800 603.18 800 550.74 706.2 498.3 800 475.16 800"/>
  </g>
  <g>
    <polygon id="E3" class="st2" points="216.99 397.34 216.99 572.15 121.63 572.15 121.63 476.79 216.99 397.34"/>
    <polygon id="E21" data-name="E2" class="st2" points="407.7 238.4 407.7 572.15 312.35 572.15 312.35 317.85 350.49 286.07 407.7 238.4"/>
    <polygon id="E11" data-name="E1" class="st2" points="598.42 79.45 598.42 572.15 503.06 572.15 503.06 158.94 579.35 95.36 598.42 79.45"/>
  </g>
  <g>
    <polygon id="FC3" class="st1" points="312.35 0 312.35 317.85 236.06 381.43 216.99 397.34 216.99 0 312.35 0"/>
    <polygon id="FC2" class="st1" points="503.06 0 503.06 158.94 464.92 190.72 407.7 238.4 407.7 0 503.06 0"/>
    <polygon id="FC1" class="st1" points="693.78 0 598.42 79.45 598.42 0 693.78 0"/>
  </g>
</svg>